<svg width="1764" height="424" viewBox="0 0 1764 424" fill="none" xmlns="http://www.w3.org/2000/svg">
<path d="M1120.18 124V30.9091H1137.05V70.3182H1180.18V30.9091H1197.09V124H1180.18V84.4545H1137.05V124H1120.18ZM1245.61 125.364C1238.61 125.364 1232.57 123.909 1227.48 121C1222.42 118.061 1218.52 113.909 1215.8 108.545C1213.07 103.152 1211.7 96.803 1211.7 89.5C1211.7 82.3182 1213.07 76.0152 1215.8 70.5909C1218.55 65.1364 1222.4 60.8939 1227.34 57.8636C1232.28 54.803 1238.08 53.2727 1244.75 53.2727C1249.05 53.2727 1253.11 53.9697 1256.93 55.3636C1260.78 56.7273 1264.17 58.8485 1267.11 61.7273C1270.08 64.6061 1272.42 68.2727 1274.11 72.7273C1275.81 77.1515 1276.66 82.4242 1276.66 88.5455V93.5909H1219.43V82.5H1260.89C1260.86 79.3485 1260.17 76.5455 1258.84 74.0909C1257.51 71.6061 1255.64 69.6515 1253.25 68.2273C1250.89 66.803 1248.13 66.0909 1244.98 66.0909C1241.61 66.0909 1238.66 66.9091 1236.11 68.5455C1233.57 70.1515 1231.58 72.2727 1230.16 74.9091C1228.77 77.5151 1228.05 80.3788 1228.02 83.5V93.1818C1228.02 97.2424 1228.77 100.727 1230.25 103.636C1231.73 106.515 1233.81 108.727 1236.48 110.273C1239.14 111.788 1242.27 112.545 1245.84 112.545C1248.23 112.545 1250.4 112.212 1252.34 111.545C1254.28 110.848 1255.96 109.833 1257.39 108.5C1258.81 107.167 1259.89 105.515 1260.61 103.545L1275.98 105.273C1275.01 109.333 1273.16 112.879 1270.43 115.909C1267.73 118.909 1264.28 121.242 1260.07 122.909C1255.86 124.545 1251.04 125.364 1245.61 125.364ZM1298.81 150.182C1296.56 150.182 1294.49 150 1292.58 149.636C1290.7 149.303 1289.2 148.909 1288.08 148.455L1291.9 135.636C1294.29 136.333 1296.43 136.667 1298.31 136.636C1300.19 136.606 1301.84 136.015 1303.26 134.864C1304.72 133.742 1305.94 131.864 1306.94 129.227L1308.35 125.455L1283.03 54.1818H1300.49L1316.58 106.909H1317.31L1333.44 54.1818H1350.94L1322.99 132.455C1321.69 136.152 1319.96 139.318 1317.81 141.955C1315.66 144.621 1313.02 146.652 1309.9 148.045C1306.81 149.47 1303.11 150.182 1298.81 150.182ZM1428.94 54.1818V66.9091H1388.81V54.1818H1428.94ZM1398.72 37.4545H1415.17V103C1415.17 105.212 1415.5 106.909 1416.17 108.091C1416.87 109.242 1417.78 110.03 1418.9 110.455C1420.02 110.879 1421.26 111.091 1422.62 111.091C1423.66 111.091 1424.59 111.015 1425.44 110.864C1426.32 110.712 1426.99 110.576 1427.44 110.455L1430.22 123.318C1429.34 123.621 1428.08 123.955 1426.44 124.318C1424.84 124.682 1422.87 124.894 1420.53 124.955C1416.41 125.076 1412.7 124.455 1409.4 123.091C1406.09 121.697 1403.47 119.545 1401.53 116.636C1399.63 113.727 1398.69 110.091 1398.72 105.727V37.4545ZM1460.66 83.0909V124H1444.2V30.9091H1460.3V66.0455H1461.11C1462.75 62.1061 1465.28 59 1468.7 56.7273C1472.16 54.4242 1476.55 53.2727 1481.89 53.2727C1486.73 53.2727 1490.96 54.2879 1494.57 56.3182C1498.17 58.3485 1500.96 61.3182 1502.93 65.2273C1504.93 69.1364 1505.93 73.9091 1505.93 79.5455V124H1489.48V82.0909C1489.48 77.3939 1488.27 73.7424 1485.84 71.1364C1483.45 68.5 1480.08 67.1818 1475.75 67.1818C1472.84 67.1818 1470.23 67.8182 1467.93 69.0909C1465.66 70.3333 1463.87 72.1364 1462.57 74.5C1461.3 76.8636 1460.66 79.7273 1460.66 83.0909ZM1553.61 125.364C1546.61 125.364 1540.57 123.909 1535.48 121C1530.42 118.061 1526.52 113.909 1523.8 108.545C1521.07 103.152 1519.7 96.803 1519.7 89.5C1519.7 82.3182 1521.07 76.0152 1523.8 70.5909C1526.55 65.1364 1530.4 60.8939 1535.34 57.8636C1540.28 54.803 1546.08 53.2727 1552.75 53.2727C1557.05 53.2727 1561.11 53.9697 1564.93 55.3636C1568.78 56.7273 1572.17 58.8485 1575.11 61.7273C1578.08 64.6061 1580.42 68.2727 1582.11 72.7273C1583.81 77.1515 1584.66 82.4242 1584.66 88.5455V93.5909H1527.43V82.5H1568.89C1568.86 79.3485 1568.17 76.5455 1566.84 74.0909C1565.51 71.6061 1563.64 69.6515 1561.25 68.2273C1558.89 66.803 1556.13 66.0909 1552.98 66.0909C1549.61 66.0909 1546.66 66.9091 1544.11 68.5455C1541.57 70.1515 1539.58 72.2727 1538.16 74.9091C1536.77 77.5151 1536.05 80.3788 1536.02 83.5V93.1818C1536.02 97.2424 1536.77 100.727 1538.25 103.636C1539.73 106.515 1541.81 108.727 1544.48 110.273C1547.14 111.788 1550.27 112.545 1553.84 112.545C1556.23 112.545 1558.4 112.212 1560.34 111.545C1562.28 110.848 1563.96 109.833 1565.39 108.5C1566.81 107.167 1567.89 105.515 1568.61 103.545L1583.98 105.273C1583.01 109.333 1581.16 112.879 1578.43 115.909C1575.73 118.909 1572.28 121.242 1568.07 122.909C1563.86 124.545 1559.04 125.364 1553.61 125.364ZM1598.58 124V54.1818H1614.53V65.8182H1615.26C1616.53 61.7879 1618.72 58.6818 1621.81 56.5C1624.93 54.2879 1628.49 53.1818 1632.49 53.1818C1633.4 53.1818 1634.41 53.2273 1635.53 53.3182C1636.69 53.3788 1637.64 53.4848 1638.4 53.6364V68.7727C1637.7 68.5303 1636.59 68.3182 1635.08 68.1364C1633.59 67.9242 1632.16 67.8182 1630.76 67.8182C1627.76 67.8182 1625.06 68.4697 1622.67 69.7727C1620.31 71.0455 1618.44 72.8182 1617.08 75.0909C1615.72 77.3636 1615.03 79.9848 1615.03 82.9545V124H1598.58ZM1677.36 125.364C1670.36 125.364 1664.32 123.909 1659.23 121C1654.17 118.061 1650.27 113.909 1647.55 108.545C1644.82 103.152 1643.45 96.803 1643.45 89.5C1643.45 82.3182 1644.82 76.0152 1647.55 70.5909C1650.3 65.1364 1654.15 60.8939 1659.09 57.8636C1664.03 54.803 1669.83 53.2727 1676.5 53.2727C1680.8 53.2727 1684.86 53.9697 1688.68 55.3636C1692.53 56.7273 1695.92 58.8485 1698.86 61.7273C1701.83 64.6061 1704.17 68.2727 1705.86 72.7273C1707.56 77.1515 1708.41 82.4242 1708.41 88.5455V93.5909H1651.18V82.5H1692.64C1692.61 79.3485 1691.92 76.5455 1690.59 74.0909C1689.26 71.6061 1687.39 69.6515 1685 68.2273C1682.64 66.803 1679.88 66.0909 1676.73 66.0909C1673.36 66.0909 1670.41 66.9091 1667.86 68.5455C1665.32 70.1515 1663.33 72.2727 1661.91 74.9091C1660.52 77.5151 1659.8 80.3788 1659.77 83.5V93.1818C1659.77 97.2424 1660.52 100.727 1662 103.636C1663.48 106.515 1665.56 108.727 1668.23 110.273C1670.89 111.788 1674.02 112.545 1677.59 112.545C1679.98 112.545 1682.15 112.212 1684.09 111.545C1686.03 110.848 1687.71 109.833 1689.14 108.5C1690.56 107.167 1691.64 105.515 1692.36 103.545L1707.73 105.273C1706.76 109.333 1704.91 112.879 1702.18 115.909C1699.48 118.909 1696.03 121.242 1691.82 122.909C1687.61 124.545 1682.79 125.364 1677.36 125.364ZM1742.47 30.9091L1740.97 96.6364H1726.33L1724.88 30.9091H1742.47ZM1733.65 125C1730.89 125 1728.53 124.03 1726.56 122.091C1724.62 120.152 1723.65 117.788 1723.65 115C1723.65 112.273 1724.62 109.939 1726.56 108C1728.53 106.061 1730.89 105.091 1733.65 105.091C1736.34 105.091 1738.68 106.061 1740.65 108C1742.65 109.939 1743.65 112.273 1743.65 115C1743.65 116.848 1743.18 118.53 1742.24 120.045C1741.33 121.561 1740.12 122.773 1738.6 123.682C1737.12 124.561 1735.47 125 1733.65 125Z" fill="#F2FDFF"/>
<path d="M26.0455 258.909V352H9.18182V258.909H26.0455ZM57.5341 258.909V268.182C57.5341 270.848 57.0189 273.621 55.9886 276.5C54.9886 279.348 53.6098 282.076 51.8523 284.682C50.0947 287.258 48.0947 289.47 45.8523 291.318L38.2159 286.364C39.8826 283.848 41.3371 281.136 42.5795 278.227C43.822 275.288 44.4432 271.97 44.4432 268.273V258.909H57.5341ZM68.2045 352V282.182H83.9318V294.045H84.75C86.2045 290.045 88.6136 286.924 91.9773 284.682C95.3409 282.409 99.3561 281.273 104.023 281.273C108.75 281.273 112.735 282.424 115.977 284.727C119.25 287 121.553 290.106 122.886 294.045H123.614C125.159 290.167 127.765 287.076 131.432 284.773C135.129 282.439 139.508 281.273 144.568 281.273C150.992 281.273 156.235 283.303 160.295 287.364C164.356 291.424 166.386 297.348 166.386 305.136V352H149.886V307.682C149.886 303.348 148.735 300.182 146.432 298.182C144.129 296.152 141.311 295.136 137.977 295.136C134.008 295.136 130.902 296.379 128.659 298.864C126.447 301.318 125.341 304.515 125.341 308.455V352H109.205V307C109.205 303.394 108.114 300.515 105.932 298.364C103.78 296.212 100.962 295.136 97.4773 295.136C95.1136 295.136 92.9621 295.742 91.0227 296.955C89.0833 298.136 87.5379 299.818 86.3864 302C85.2348 304.152 84.6591 306.667 84.6591 309.545V352H68.2045Z" fill="#F2FDFF"/>
<path d="M342.092 193.797C341.098 184.493 336.908 177.249 329.521 172.064C322.206 166.879 312.689 164.287 300.97 164.287C292.732 164.287 285.665 165.53 279.77 168.016C273.875 170.501 269.365 173.875 266.24 178.136C263.115 182.398 261.517 187.263 261.446 192.732C261.446 197.277 262.476 201.219 264.536 204.557C266.666 207.895 269.543 210.736 273.165 213.08C276.787 215.352 280.8 217.27 285.203 218.832C289.607 220.395 294.045 221.709 298.52 222.774L318.974 227.888C327.213 229.805 335.132 232.398 342.732 235.665C350.402 238.932 357.256 243.051 363.293 248.023C369.401 252.994 374.23 258.996 377.781 266.027C381.332 273.058 383.108 281.297 383.108 290.743C383.108 303.527 379.841 314.784 373.307 324.514C366.773 334.173 357.327 341.737 344.969 347.206C332.682 352.604 317.803 355.303 300.331 355.303C283.357 355.303 268.619 352.675 256.119 347.419C243.69 342.163 233.96 334.493 226.929 324.408C219.969 314.322 216.205 302.036 215.636 287.547H254.521C255.089 295.146 257.433 301.467 261.553 306.51C265.672 311.553 271.034 315.317 277.639 317.803C284.315 320.288 291.773 321.531 300.011 321.531C308.605 321.531 316.134 320.253 322.597 317.696C329.131 315.068 334.244 311.446 337.938 306.83C341.631 302.142 343.513 296.673 343.584 290.423C343.513 284.741 341.844 280.054 338.577 276.361C335.31 272.597 330.729 269.472 324.834 266.986C319.01 264.429 312.192 262.156 304.379 260.168L279.557 253.776C261.588 249.159 247.384 242.163 236.943 232.788C226.574 223.342 221.389 210.807 221.389 195.182C221.389 182.327 224.869 171.07 231.83 161.411C238.861 151.751 248.413 144.259 260.487 138.932C272.561 133.534 286.233 130.835 301.503 130.835C316.986 130.835 330.551 133.534 342.199 138.932C353.918 144.259 363.115 151.68 369.791 161.197C376.467 170.643 379.912 181.51 380.125 193.797H342.092ZM520.936 283.179V188.364H559.502V352H522.108V322.916H520.404C516.711 332.078 510.638 339.571 502.186 345.395C493.806 351.219 483.472 354.131 471.185 354.131C460.461 354.131 450.979 351.751 442.74 346.993C434.573 342.163 428.181 335.168 423.564 326.006C418.948 316.773 416.64 305.622 416.64 292.554V188.364H455.205V286.588C455.205 296.957 458.046 305.196 463.728 311.304C469.409 317.412 476.867 320.466 486.1 320.466C491.782 320.466 497.286 319.081 502.613 316.311C507.939 313.541 512.307 309.422 515.716 303.953C519.196 298.413 520.936 291.489 520.936 283.179ZM659.884 354.876C647.028 354.876 635.523 351.574 625.366 344.969C615.21 338.364 607.185 328.776 601.29 316.205C595.395 303.634 592.447 288.364 592.447 270.395C592.447 252.213 595.43 236.872 601.396 224.372C607.433 211.801 615.565 202.32 625.793 195.928C636.02 189.464 647.419 186.233 659.99 186.233C669.578 186.233 677.462 187.866 683.641 191.134C689.82 194.33 694.72 198.2 698.342 202.746C701.964 207.22 704.77 211.446 706.759 215.423H708.357V133.818H747.028V352H709.102V326.219H706.759C704.77 330.196 701.893 334.422 698.129 338.896C694.365 343.3 689.393 347.064 683.214 350.189C677.036 353.314 669.259 354.876 659.884 354.876ZM670.643 323.236C678.811 323.236 685.771 321.034 691.524 316.631C697.277 312.156 701.645 305.942 704.628 297.987C707.611 290.033 709.102 280.764 709.102 270.182C709.102 259.599 707.611 250.402 704.628 242.589C701.716 234.777 697.384 228.705 691.631 224.372C685.949 220.04 678.953 217.874 670.643 217.874C662.05 217.874 654.876 220.111 649.124 224.585C643.371 229.06 639.038 235.239 636.126 243.122C633.214 251.006 631.759 260.026 631.759 270.182C631.759 280.409 633.214 289.536 636.126 297.561C639.109 305.516 643.477 311.801 649.23 316.418C655.054 320.963 662.192 323.236 670.643 323.236ZM826.689 256.119V352H788.124V133.818H825.837V216.169H827.755C831.59 206.936 837.52 199.656 845.546 194.33C853.642 188.932 863.941 186.233 876.441 186.233C887.804 186.233 897.712 188.612 906.164 193.371C914.615 198.129 921.15 205.089 925.766 214.251C930.453 223.413 932.797 234.599 932.797 247.81V352H894.232V253.776C894.232 242.767 891.391 234.209 885.709 228.101C880.098 221.922 872.215 218.832 862.059 218.832C855.24 218.832 849.132 220.324 843.735 223.307C838.408 226.219 834.218 230.445 831.164 235.984C828.181 241.524 826.689 248.236 826.689 256.119ZM1019.2 355.303C1008.83 355.303 999.488 353.456 991.178 349.763C982.939 345.999 976.405 340.459 971.576 333.143C966.817 325.828 964.438 316.808 964.438 306.084C964.438 296.851 966.142 289.216 969.551 283.179C972.961 277.142 977.613 272.312 983.507 268.69C989.402 265.068 996.043 262.334 1003.43 260.487C1010.89 258.57 1018.59 257.185 1026.55 256.332C1036.14 255.338 1043.91 254.45 1049.88 253.669C1055.84 252.817 1060.18 251.538 1062.88 249.834C1065.65 248.058 1067.03 245.324 1067.03 241.631V240.991C1067.03 232.966 1064.65 226.751 1059.89 222.348C1055.13 217.945 1048.28 215.743 1039.33 215.743C1029.89 215.743 1022.39 217.803 1016.85 221.922C1011.38 226.041 1007.69 230.906 1005.77 236.517L969.765 231.403C972.605 221.46 977.293 213.151 983.827 206.474C990.361 199.727 998.351 194.685 1007.8 191.347C1017.24 187.938 1027.68 186.233 1039.12 186.233C1047 186.233 1054.85 187.156 1062.66 189.003C1070.47 190.849 1077.61 193.903 1084.08 198.165C1090.54 202.355 1095.72 208.072 1099.63 215.317C1103.61 222.561 1105.6 231.616 1105.6 242.483V352H1068.52V329.521H1067.24C1064.9 334.067 1061.6 338.328 1057.34 342.305C1053.15 346.212 1047.85 349.372 1041.46 351.787C1035.14 354.131 1027.72 355.303 1019.2 355.303ZM1029.21 326.964C1036.95 326.964 1043.66 325.437 1049.35 322.384C1055.03 319.259 1059.4 315.139 1062.45 310.026C1065.57 304.912 1067.14 299.337 1067.14 293.3V274.017C1065.93 275.011 1063.87 275.935 1060.96 276.787C1058.12 277.639 1054.92 278.385 1051.37 279.024C1047.82 279.663 1044.3 280.232 1040.82 280.729C1037.34 281.226 1034.32 281.652 1031.77 282.007C1026.01 282.788 1020.87 284.067 1016.32 285.842C1011.77 287.618 1008.19 290.104 1005.56 293.3C1002.93 296.425 1001.62 300.473 1001.62 305.445C1001.62 312.547 1004.21 317.909 1009.4 321.531C1014.58 325.153 1021.19 326.964 1029.21 326.964ZM1144.37 352V188.364H1181.77V215.636H1183.47C1186.45 206.19 1191.57 198.911 1198.81 193.797C1206.13 188.612 1214.47 186.02 1223.85 186.02C1225.98 186.02 1228.36 186.126 1230.99 186.339C1233.69 186.482 1235.92 186.73 1237.7 187.085V222.561C1236.06 221.993 1233.47 221.496 1229.92 221.07C1226.44 220.572 1223.07 220.324 1219.8 220.324C1212.77 220.324 1206.45 221.851 1200.84 224.905C1195.3 227.888 1190.93 232.043 1187.73 237.369C1184.54 242.696 1182.94 248.839 1182.94 255.8V352H1144.37ZM1392.65 231.616L1357.5 235.452C1356.5 231.901 1354.76 228.562 1352.28 225.438C1349.86 222.312 1346.59 219.791 1342.47 217.874C1338.35 215.956 1333.31 214.997 1327.35 214.997C1319.32 214.997 1312.57 216.737 1307.1 220.217C1301.71 223.697 1299.04 228.207 1299.11 233.747C1299.04 238.506 1300.78 242.376 1304.33 245.359C1307.96 248.342 1313.92 250.793 1322.23 252.71L1350.14 258.676C1365.63 262.014 1377.13 267.305 1384.66 274.55C1392.26 281.794 1396.1 291.276 1396.17 302.994C1396.1 313.293 1393.08 322.384 1387.11 330.267C1381.22 338.08 1373.01 344.187 1362.5 348.591C1351.99 352.994 1339.92 355.196 1326.28 355.196C1306.25 355.196 1290.13 351.006 1277.91 342.625C1265.7 334.173 1258.42 322.419 1256.07 307.362L1293.68 303.74C1295.39 311.126 1299.01 316.702 1304.55 320.466C1310.09 324.23 1317.3 326.112 1326.17 326.112C1335.34 326.112 1342.69 324.23 1348.23 320.466C1353.84 316.702 1356.64 312.05 1356.64 306.51C1356.64 301.822 1354.83 297.952 1351.21 294.898C1347.66 291.844 1342.12 289.5 1334.59 287.866L1306.68 282.007C1290.98 278.74 1279.37 273.236 1271.84 265.494C1264.31 257.682 1260.58 247.81 1260.66 235.878C1260.58 225.793 1263.32 217.057 1268.86 209.67C1274.47 202.213 1282.25 196.46 1292.19 192.412C1302.2 188.293 1313.75 186.233 1326.81 186.233C1345.99 186.233 1361.08 190.317 1372.09 198.484C1383.17 206.652 1390.02 217.696 1392.65 231.616ZM1475.06 355.303C1464.69 355.303 1455.35 353.456 1447.04 349.763C1438.8 345.999 1432.26 340.459 1427.44 333.143C1422.68 325.828 1420.3 316.808 1420.3 306.084C1420.3 296.851 1422 289.216 1425.41 283.179C1428.82 277.142 1433.47 272.312 1439.37 268.69C1445.26 265.068 1451.9 262.334 1459.29 260.487C1466.75 258.57 1474.45 257.185 1482.41 256.332C1491.99 255.338 1499.77 254.45 1505.74 253.669C1511.7 252.817 1516.04 251.538 1518.73 249.834C1521.5 248.058 1522.89 245.324 1522.89 241.631V240.991C1522.89 232.966 1520.51 226.751 1515.75 222.348C1510.99 217.945 1504.14 215.743 1495.19 215.743C1485.74 215.743 1478.25 217.803 1472.71 221.922C1467.24 226.041 1463.55 230.906 1461.63 236.517L1425.62 231.403C1428.46 221.46 1433.15 213.151 1439.69 206.474C1446.22 199.727 1454.21 194.685 1463.66 191.347C1473.1 187.938 1483.54 186.233 1494.98 186.233C1502.86 186.233 1510.71 187.156 1518.52 189.003C1526.33 190.849 1533.47 193.903 1539.94 198.165C1546.4 202.355 1551.58 208.072 1555.49 215.317C1559.47 222.561 1561.45 231.616 1561.45 242.483V352H1524.38V329.521H1523.1C1520.76 334.067 1517.46 338.328 1513.19 342.305C1509 346.212 1503.71 349.372 1497.32 351.787C1491 354.131 1483.58 355.303 1475.06 355.303ZM1485.07 326.964C1492.81 326.964 1499.52 325.437 1505.2 322.384C1510.89 319.259 1515.25 315.139 1518.31 310.026C1521.43 304.912 1523 299.337 1523 293.3V274.017C1521.79 275.011 1519.73 275.935 1516.82 276.787C1513.98 277.639 1510.78 278.385 1507.23 279.024C1503.68 279.663 1500.16 280.232 1496.68 280.729C1493.2 281.226 1490.18 281.652 1487.63 282.007C1481.87 282.788 1476.72 284.067 1472.18 285.842C1467.63 287.618 1464.05 290.104 1461.42 293.3C1458.79 296.425 1457.48 300.473 1457.48 305.445C1457.48 312.547 1460.07 317.909 1465.25 321.531C1470.44 325.153 1477.04 326.964 1485.07 326.964ZM1638.8 256.119V352H1600.23V188.364H1637.09V216.169H1639.01C1642.78 207.007 1648.78 199.727 1657.02 194.33C1665.33 188.932 1675.59 186.233 1687.8 186.233C1699.1 186.233 1708.93 188.648 1717.31 193.477C1725.77 198.307 1732.3 205.303 1736.92 214.464C1741.6 223.626 1743.91 234.741 1743.84 247.81V352H1705.28V253.776C1705.28 242.838 1702.44 234.28 1696.75 228.101C1691.14 221.922 1683.37 218.832 1673.42 218.832C1666.68 218.832 1660.67 220.324 1655.42 223.307C1650.23 226.219 1646.15 230.445 1643.17 235.984C1640.25 241.524 1638.8 248.236 1638.8 256.119Z" fill="#11F6A3"/>
</svg>
